<?xml version="1.0" standalone="no"?>
<!DOCTYPE svg PUBLIC "-//W3C//DTD SVG 20010904//EN"
 "http://www.w3.org/TR/2001/REC-SVG-20010904/DTD/svg10.dtd">
<svg version="1.0" xmlns="http://www.w3.org/2000/svg"
 width="260.000000pt" height="260.000000pt" viewBox="0 0 260.000000 260.000000"
 preserveAspectRatio="xMidYMid meet">
<metadata>
Created by potrace 1.11, written by Peter Selinger 2001-2013
</metadata>
<g transform="translate(0.000000,260.000000) scale(0.100000,-0.100000)"
fill="#000000" stroke="none">
<path d="M1244 2580 c-12 -4 -106 -57 -210 -117 -757 -437 -827 -479 -848
-508 -21 -30 -21 -35 -24 -642 -3 -676 -4 -658 59 -705 19 -14 255 -153 524
-309 474 -274 492 -283 550 -287 l60 -3 400 231 c220 128 447 259 505 293 58
33 116 70 128 81 53 47 52 29 52 686 0 692 5 648 -83 704 -58 37 -933 544
-984 570 -34 17 -94 20 -129 6z m-135 -831 c76 -17 154 -62 220 -126 73 -71
73 -68 -14 -128 l-53 -37 -37 41 c-118 130 -327 128 -444 -5 -109 -124 -90
-321 41 -425 61 -48 107 -63 188 -63 84 0 155 31 211 91 l41 45 54 -37 c83
-58 83 -55 16 -124 -139 -142 -345 -178 -525 -93 -325 154 -351 607 -46 803
96 61 234 85 348 58z m961 -99 l0 -80 -105 0 -105 0 -2 -357 -3 -358 -82 -3
-83 -3 0 360 0 360 -107 3 -108 3 -3 78 -3 77 301 0 300 0 0 -80z"/>
</g>
</svg>
